<svg width="44" height="44" viewBox="0 0 44 44" fill="none" xmlns="http://www.w3.org/2000/svg">
<g id="flat-color-icons:google">
<path id="Vector" d="M39.432 18.6889H37.9958V18.6149H21.949V25.7468H32.0255C30.5554 29.8985 26.6052 32.8787 21.949 32.8787C16.0411 32.8787 11.2511 28.0888 11.2511 22.1809C11.2511 16.273 16.0411 11.483 21.949 11.483C24.6761 11.483 27.1571 12.5118 29.0461 14.1922L34.0893 9.14907C30.9049 6.1813 26.6454 4.35107 21.949 4.35107C12.1025 4.35107 4.1192 12.3344 4.1192 22.1809C4.1192 32.0274 12.1025 40.0106 21.949 40.0106C31.7955 40.0106 39.7788 32.0274 39.7788 22.1809C39.7788 20.9854 39.6558 19.8184 39.432 18.6889Z" fill="#FFC107"/>
<path id="Vector_2" d="M6.17499 13.882L12.033 18.1781C13.618 14.2537 17.4568 11.483 21.949 11.483C24.6761 11.483 27.1571 12.5118 29.0461 14.1922L34.0893 9.14907C30.9049 6.1813 26.6454 4.35107 21.949 4.35107C15.1006 4.35107 9.16148 8.21746 6.17499 13.882Z" fill="#FF3D00"/>
<path id="Vector_3" d="M21.949 40.0106C26.5545 40.0106 30.7391 38.2481 33.903 35.382L28.3847 30.7124C26.5344 32.1195 24.2735 32.8805 21.949 32.8787C17.3115 32.8787 13.3738 29.9216 11.8903 25.7949L6.07605 30.2747C9.02688 36.0488 15.0195 40.0106 21.949 40.0106Z" fill="#4CAF50"/>
<path id="Vector_4" d="M39.432 18.6887H37.9958V18.6147H21.949V25.7467H32.0255C31.3223 27.7226 30.0556 29.4492 28.382 30.7131L28.3847 30.7114L33.903 35.381C33.5125 35.7358 39.7788 31.0956 39.7788 22.1807C39.7788 20.9852 39.6558 19.8183 39.432 18.6887Z" fill="#1976D2"/>
</g>
</svg>
