<svg width="44" height="44" viewBox="0 0 44 44" fill="none" xmlns="http://www.w3.org/2000/svg">
<g id="logos:facebook" clip-path="url(#clip0_46_118)">
<path id="Vector" d="M43.749 22.1809C43.749 10.3644 34.1697 0.785156 22.3533 0.785156C10.5368 0.785156 0.95752 10.3643 0.95752 22.1809C0.95752 32.8601 8.78168 41.7117 19.0102 43.3167V28.3656H13.5777V22.1809H19.0102V17.4672C19.0102 12.1048 22.2045 9.14287 27.0916 9.14287C29.4326 9.14287 31.8811 9.56075 31.8811 9.56075V14.8261H29.1832C26.5251 14.8261 25.6963 16.4754 25.6963 18.1675V22.1809H31.6303L30.6817 28.3656H25.6963V43.3167C35.9249 41.7117 43.749 32.8602 43.749 22.1809Z" fill="#1877F2"/>
<path id="Vector_2" d="M30.6817 28.3658L31.6303 22.1811H25.6964V18.1677C25.6964 16.4755 26.5253 14.8263 29.1832 14.8263H31.8811V9.56095C31.8811 9.56095 29.4326 9.14307 27.0916 9.14307C22.2045 9.14307 19.0102 12.105 19.0102 17.4673V22.1811H13.5777V28.3658H19.0102V43.3169C20.1161 43.4902 21.2338 43.5771 22.3533 43.5768C23.4727 43.5772 24.5904 43.4903 25.6964 43.3169V28.3658H30.6817Z" fill="white"/>
</g>
<defs>
<clipPath id="clip0_46_118">
<rect width="42.7915" height="42.7915" fill="white" transform="translate(0.95752 0.785156)"/>
</clipPath>
</defs>
</svg>
